<?xml version="1.0"?>
<svg version="1.1" xmlns="http://www.w3.org/2000/svg" xmlns:xlink="http://www.w3.org/1999/xlink" width="398" height="398">
    <desc iVinci="yes" version="4.6" gridStep="20" showGrid="no" snapToGrid="no" codePlatform="0"/>
    <g id="Layer1" name="Layer 1" opacity="1">
        <g id="Shape1">
            <desc shapeID="1" type="0" basicInfo-basicType="0" basicInfo-roundedRectRadius="12" basicInfo-polygonSides="6" basicInfo-starPoints="5" bounding="rect(-199,-199,398,398)" text="" font-familyName="" font-pixelSize="20" font-bold="0" font-underline="0" font-alignment="1" strokeStyle="0" markerStart="0" markerEnd="0" shadowEnabled="0" shadowOffsetX="0" shadowOffsetY="2" shadowBlur="4" shadowOpacity="160" blurEnabled="0" blurRadius="4" transform="matrix(1,0,0,1,199,199)" pers-center="0,0" pers-size="0,0" pers-start="0,0" pers-end="0,0" locked="0" mesh="" flag=""/>
            <path id="shapePath1" d="M0,0 L398,0 L398,398 L0,398 L0,0 Z" style="stroke:none;fill-rule:evenodd;fill:#e5e5e5;fill-opacity:1;"/>
        </g>
        <g id="Shape2">
            <desc shapeID="2" type="0" basicInfo-basicType="0" basicInfo-roundedRectRadius="12" basicInfo-polygonSides="6" basicInfo-starPoints="5" bounding="rect(-199,-199,398,398)" text="" font-familyName="" font-pixelSize="20" font-bold="0" font-underline="0" font-alignment="1" strokeStyle="0" markerStart="0" markerEnd="0" shadowEnabled="0" shadowOffsetX="0" shadowOffsetY="2" shadowBlur="4" shadowOpacity="160" blurEnabled="0" blurRadius="4" transform="matrix(1,0,0,1,199,199)" pers-center="0,0" pers-size="0,0" pers-start="0,0" pers-end="0,0" locked="0" mesh="" flag=""/>
            <path id="shapePath2" d="M0,0 L398,0 L398,398 L0,398 L0,0 Z" style="stroke:none;fill-rule:evenodd;fill:#ffffff;fill-opacity:1;"/>
        </g>
        <g id="Shape3">
            <desc shapeID="3" type="0" basicInfo-basicType="0" basicInfo-roundedRectRadius="12" basicInfo-polygonSides="6" basicInfo-starPoints="5" bounding="rect(-5.67799,-5.6776,11.356,11.3552)" text="" font-familyName="" font-pixelSize="20" font-bold="0" font-underline="0" font-alignment="1" strokeStyle="0" markerStart="0" markerEnd="0" shadowEnabled="0" shadowOffsetX="0" shadowOffsetY="2" shadowBlur="4" shadowOpacity="160" blurEnabled="0" blurRadius="4" transform="matrix(1,0,0,1,199.405,53.3066)" pers-center="0,0" pers-size="0,0" pers-start="0,0" pers-end="0,0" locked="0" mesh="" flag=""/>
            <path id="shapePath3" d="M205.083,53.3066 C205.083,50.1758 202.536,47.629 199.405,47.629 C196.274,47.629 193.727,50.1758 193.727,53.3066 C193.727,56.4374 196.274,58.9842 199.405,58.9842 C202.536,58.9842 205.083,56.4374 205.083,53.3066 Z" style="stroke:none;fill-rule:nonzero;fill:#000000;fill-opacity:1;"/>
        </g>
        <g id="Shape4">
            <desc shapeID="4" type="0" basicInfo-basicType="0" basicInfo-roundedRectRadius="12" basicInfo-polygonSides="6" basicInfo-starPoints="5" bounding="rect(-78.405,-119.5,156.81,239)" text="" font-familyName="" font-pixelSize="20" font-bold="0" font-underline="0" font-alignment="1" strokeStyle="0" markerStart="0" markerEnd="0" shadowEnabled="0" shadowOffsetX="0" shadowOffsetY="2" shadowBlur="4" shadowOpacity="160" blurEnabled="0" blurRadius="4" transform="matrix(1,0,0,1,199.405,145.5)" pers-center="0,0" pers-size="0,0" pers-start="0,0" pers-end="0,0" locked="0" mesh="" flag=""/>
            <path id="shapePath4" d="M266.995,114.507 L234.552,114.507 L234.552,91.9683 C234.552,88.9824 232.131,86.5611 229.145,86.5611 L223.738,86.5611 L223.738,31.4072 C223.738,28.4208 221.316,26 218.33,26 L180.48,26 C177.493,26 175.072,28.4208 175.072,31.4072 L175.072,86.5611 L169.665,86.5611 C166.679,86.5611 164.258,88.9824 164.258,91.9683 L164.258,114.507 L131.814,114.507 C125.851,114.507 121,119.358 121,125.321 L121,254.186 C121,260.149 125.851,265 131.814,265 L266.995,265 C272.959,265 277.81,260.149 277.81,254.186 L277.81,125.321 C277.81,119.358 272.959,114.507 266.995,114.507 M185.887,36.8145 L212.923,36.8145 L212.923,86.5611 L185.887,86.5611 L185.887,36.8145 M131.814,254.186 L131.814,125.321 L169.665,125.321 C172.652,125.321 175.072,122.9 175.072,119.914 L175.072,97.3756 L193.998,97.3756 L193.998,136.136 L148.036,136.136 C145.05,136.136 142.629,138.557 142.629,141.543 L142.629,237.964 C142.629,240.95 145.05,243.371 148.036,243.371 L250.774,243.371 C253.76,243.371 256.181,240.95 256.181,237.964 L256.181,205.038 C256.181,202.052 253.76,199.631 250.774,199.631 C247.788,199.631 245.367,202.052 245.367,205.038 L245.367,232.557 L153.443,232.557 L153.443,146.95 L193.998,146.95 L193.998,216.335 C193.998,219.321 196.419,221.742 199.405,221.742 C202.391,221.742 204.812,219.321 204.812,216.335 L204.812,146.95 L245.367,146.95 L245.367,186.595 C245.367,189.581 247.788,192.002 250.774,192.002 C253.76,192.002 256.181,189.581 256.181,186.595 L256.181,141.543 C256.181,138.557 253.76,136.136 250.774,136.136 L204.812,136.136 L204.812,97.3756 L223.738,97.3756 L223.738,119.914 C223.738,122.9 226.159,125.321 229.145,125.321 L266.995,125.321 L266.997,254.186 L131.814,254.186 Z" style="stroke:none;fill-rule:nonzero;fill:#000000;fill-opacity:1;"/>
        </g>
        <g id="Shape5">
            <desc shapeID="5" type="0" basicInfo-basicType="0" basicInfo-roundedRectRadius="12" basicInfo-polygonSides="6" basicInfo-starPoints="5" bounding="rect(-184.897,-15.282,369.794,30.564)" text="" font-familyName="" font-pixelSize="20" font-bold="0" font-underline="0" font-alignment="1" strokeStyle="0" markerStart="0" markerEnd="0" shadowEnabled="0" shadowOffsetX="0" shadowOffsetY="2" shadowBlur="4" shadowOpacity="160" blurEnabled="0" blurRadius="4" transform="matrix(1,0,0,1,203.454,314.146)" pers-center="0,0" pers-size="0,0" pers-start="0,0" pers-end="0,0" locked="0" mesh="" flag=""/>
            <path id="shapePath5" d="M33.4968,323.02 L33.4968,303.976 L21.4368,303.976 L21.4368,301.78 L47.7528,301.78 L47.7528,303.976 L35.6568,303.976 L35.6568,323.02 L33.4968,323.02 M37.6368,325.036 L37.6368,305.992 L49.7328,305.992 L49.7328,299.764 L19.4568,299.764 L19.4568,305.992 L31.5168,305.992 L31.5168,325.036 L37.6368,325.036 M18.5568,306.892 L18.5568,298.864 L50.6328,298.864 L54.1248,302.572 L54.1248,310.384 L42.0288,310.384 L42.0288,329.428 L34.3248,329.428 L30.6168,325.936 L30.6168,310.384 L22.2648,310.384 L18.5568,306.892 M87.4293,313.48 L67.3413,313.48 L67.3413,323.02 L65.1453,323.02 L65.1453,301.78 L67.3413,301.78 L67.3413,311.32 L87.4293,311.32 L87.4293,301.78 L89.6613,301.78 L89.6613,323.02 L87.4293,323.02 L87.4293,313.48 M91.6773,299.764 L85.4133,299.764 L85.4133,309.34 L69.3573,309.34 L69.3573,299.764 L63.1293,299.764 L63.1293,325.036 L69.3573,325.036 L69.3573,315.46 L85.4133,315.46 L85.4133,325.036 L91.6773,325.036 L91.6773,299.764 M73.7493,308.44 L84.5133,308.44 L84.5133,298.864 L92.5773,298.864 L96.0693,302.572 L96.0693,329.428 L88.2213,329.428 L84.5133,325.936 L84.5133,319.852 L73.7493,319.852 L73.7493,329.428 L65.9373,329.428 L62.2293,325.936 L62.2293,298.864 L70.2573,298.864 L73.7493,302.572 L73.7493,308.44 M129.166,311.32 L129.166,313.48 L110.842,313.48 L110.842,320.824 L132.91,320.824 L132.91,323.02 L108.61,323.02 L108.61,301.78 L132.874,301.78 L132.874,303.976 L110.842,303.976 L110.842,311.32 L129.166,311.32 M134.89,305.992 L134.89,299.764 L106.594,299.764 L106.594,325.036 L134.926,325.036 L134.926,318.808 L112.822,318.808 L112.822,315.46 L131.146,315.46 L131.146,309.34 L112.822,309.34 L112.822,305.992 L134.89,305.992 M105.694,325.936 L105.694,298.864 L135.79,298.864 L139.282,302.572 L139.282,310.384 L133.774,310.384 L135.538,312.148 L135.538,317.908 L139.318,321.616 L139.318,329.428 L109.402,329.428 L105.694,325.936 M182.443,318.088 C183.211,318.832 184.063,319.396 184.999,319.78 C185.935,320.164 186.907,320.44 187.915,320.608 C188.923,320.752 189.955,320.836 191.011,320.86 C192.067,320.86 193.087,320.86 194.071,320.86 C194.431,320.86 194.911,320.848 195.511,320.824 C196.135,320.8 196.795,320.752 197.491,320.68 C198.211,320.584 198.931,320.464 199.651,320.32 C200.371,320.152 201.019,319.936 201.595,319.672 C202.195,319.408 202.675,319.096 203.035,318.736 C203.419,318.352 203.611,317.896 203.611,317.368 C203.611,316.84 203.407,316.384 202.999,316 C202.615,315.592 202.111,315.244 201.487,314.956 C200.863,314.668 200.155,314.428 199.363,314.236 C198.595,314.02 197.827,313.864 197.059,313.768 C196.291,313.648 195.571,313.564 194.899,313.516 C194.251,313.468 193.723,313.444 193.315,313.444 L193.351,313.444 C192.775,313.42 192.067,313.36 191.227,313.264 C190.387,313.168 189.511,313.024 188.599,312.832 C187.687,312.64 186.775,312.4 185.863,312.112 C184.951,311.8 184.135,311.428 183.415,310.996 C182.695,310.564 182.107,310.06 181.651,309.484 C181.195,308.884 180.967,308.2 180.967,307.432 C180.967,306.592 181.183,305.872 181.615,305.272 C182.071,304.672 182.647,304.168 183.343,303.76 C184.063,303.328 184.867,302.992 185.755,302.752 C186.643,302.488 187.543,302.284 188.455,302.14 C189.367,301.996 190.231,301.9 191.047,301.852 C191.887,301.804 192.595,301.78 193.171,301.78 C194.107,301.78 195.055,301.828 196.015,301.924 C196.999,301.996 197.959,302.14 198.895,302.356 C199.831,302.572 200.743,302.872 201.631,303.256 C202.519,303.616 203.335,304.084 204.079,304.66 L202.171,306.028 C201.475,305.548 200.743,305.176 199.975,304.912 C199.207,304.624 198.415,304.408 197.599,304.264 C196.783,304.12 195.955,304.036 195.115,304.012 C194.275,303.964 193.459,303.94 192.667,303.94 C192.115,303.94 191.359,303.976 190.399,304.048 C189.463,304.12 188.527,304.276 187.591,304.516 C186.679,304.732 185.887,305.08 185.215,305.56 C184.543,306.016 184.207,306.64 184.207,307.432 C184.207,308.2 184.531,308.824 185.179,309.304 C185.827,309.76 186.679,310.132 187.735,310.42 C188.791,310.684 189.991,310.9 191.335,311.068 C192.703,311.212 194.095,311.368 195.511,311.536 C196.927,311.704 198.307,311.908 199.651,312.148 C201.019,312.364 202.231,312.688 203.287,313.12 C204.343,313.528 205.195,314.08 205.843,314.776 C206.491,315.448 206.815,316.312 206.815,317.368 C206.815,318.112 206.587,318.772 206.131,319.348 C205.699,319.924 205.123,320.428 204.403,320.86 C203.683,321.268 202.867,321.616 201.955,321.904 C201.067,322.168 200.167,322.384 199.255,322.552 C198.367,322.72 197.515,322.84 196.699,322.912 C195.883,322.984 195.211,323.02 194.683,323.02 L191.983,323.02 C190.999,323.02 189.967,322.984 188.887,322.912 C187.807,322.84 186.751,322.684 185.719,322.444 C184.687,322.18 183.703,321.82 182.767,321.364 C181.831,320.908 181.003,320.284 180.283,319.492 L182.443,318.088 M177.295,318.736 C178.255,320.296 179.395,321.508 180.715,322.372 C182.035,323.212 183.463,323.836 184.999,324.244 C186.535,324.628 188.119,324.856 189.751,324.928 C191.407,325 193.051,325.036 194.683,325.036 C195.403,325.036 196.255,324.988 197.239,324.892 C198.223,324.772 199.243,324.592 200.299,324.352 C201.355,324.112 202.387,323.8 203.395,323.416 C204.427,323.008 205.339,322.528 206.131,321.976 C206.947,321.4 207.595,320.74 208.075,319.996 C208.579,319.228 208.831,318.352 208.831,317.368 C208.831,316.192 208.567,315.196 208.039,314.38 C207.535,313.54 206.863,312.844 206.023,312.292 C205.207,311.716 204.259,311.26 203.179,310.924 C202.123,310.564 201.031,310.288 199.903,310.096 C198.775,309.904 197.671,309.76 196.591,309.664 C195.511,309.568 194.551,309.484 193.711,309.412 C193.423,309.388 192.871,309.34 192.055,309.268 C191.239,309.172 190.399,309.052 189.535,308.908 C188.671,308.74 187.903,308.536 187.231,308.296 C186.559,308.056 186.223,307.768 186.223,307.432 C186.223,307.048 186.535,306.76 187.159,306.568 C187.783,306.376 188.491,306.232 189.283,306.136 C190.099,306.04 190.879,305.992 191.623,305.992 C192.391,305.968 192.907,305.956 193.171,305.956 C193.939,305.956 194.719,305.992 195.511,306.064 C196.303,306.112 197.071,306.232 197.815,306.424 C198.583,306.616 199.303,306.892 199.975,307.252 C200.671,307.612 201.307,308.08 201.883,308.656 L207.139,305.128 C206.227,303.88 205.195,302.908 204.043,302.212 C202.891,301.492 201.667,300.952 200.371,300.592 C199.075,300.232 197.719,300.004 196.303,299.908 C194.911,299.812 193.507,299.764 192.091,299.764 C191.347,299.764 190.495,299.824 189.535,299.944 C188.599,300.04 187.639,300.208 186.655,300.448 C185.695,300.688 184.747,301 183.811,301.384 C182.899,301.768 182.083,302.248 181.363,302.824 C180.643,303.4 180.067,304.072 179.635,304.84 C179.203,305.584 178.987,306.448 178.987,307.432 C178.987,308.56 179.263,309.532 179.815,310.348 C180.367,311.164 181.099,311.86 182.011,312.436 C182.923,313.012 183.955,313.48 185.107,313.84 C186.259,314.2 187.423,314.5 188.599,314.74 C189.799,314.956 190.951,315.136 192.055,315.28 C193.183,315.4 194.167,315.508 195.007,315.604 C195.247,315.628 195.715,315.676 196.411,315.748 C197.131,315.82 197.875,315.928 198.643,316.072 C199.411,316.192 200.095,316.36 200.695,316.576 C201.295,316.792 201.595,317.056 201.595,317.368 C201.595,317.632 201.403,317.86 201.019,318.052 C200.635,318.22 200.143,318.364 199.543,318.484 C198.943,318.58 198.283,318.652 197.563,318.7 C196.843,318.748 196.135,318.784 195.439,318.808 C194.767,318.832 194.155,318.844 193.603,318.844 C193.075,318.844 192.703,318.844 192.487,318.844 C191.575,318.844 190.675,318.808 189.787,318.736 C188.899,318.64 188.035,318.472 187.195,318.232 C186.355,317.968 185.563,317.608 184.819,317.152 C184.075,316.696 183.403,316.084 182.803,315.316 L177.295,318.736 M182.515,314.416 L180.787,312.652 C179.947,312.028 179.287,311.296 178.807,310.456 C178.327,309.592 178.087,308.584 178.087,307.432 C178.087,306.328 178.315,305.356 178.771,304.516 C179.251,303.652 179.875,302.908 180.643,302.284 C181.411,301.66 182.287,301.132 183.271,300.7 C184.255,300.244 185.263,299.884 186.295,299.62 C187.327,299.356 188.347,299.164 189.355,299.044 C190.363,298.924 191.275,298.864 192.091,298.864 C193.507,298.864 194.935,298.912 196.375,299.008 C197.815,299.08 199.219,299.296 200.587,299.656 C201.979,300.016 203.311,300.568 204.583,301.312 C205.855,302.056 207.043,303.1 208.147,304.444 C208.891,305.188 209.479,305.812 209.911,306.316 C210.343,306.796 210.679,307.204 210.919,307.54 C211.183,307.876 211.375,308.152 211.495,308.368 C211.615,308.56 211.735,308.74 211.855,308.908 L207.247,312.004 C207.367,312.124 207.499,312.232 207.643,312.328 C207.811,312.4 208.039,312.556 208.327,312.796 C208.615,313.036 208.987,313.384 209.443,313.84 C209.923,314.272 210.559,314.896 211.351,315.712 C211.927,316.312 212.383,317.08 212.719,318.016 C213.055,318.952 213.223,319.936 213.223,320.968 C213.223,322.048 212.959,323.008 212.431,323.848 C211.903,324.688 211.219,325.42 210.379,326.044 C209.539,326.668 208.579,327.196 207.499,327.628 C206.419,328.06 205.327,328.408 204.223,328.672 C203.119,328.936 202.039,329.128 200.983,329.248 C199.951,329.368 199.051,329.428 198.283,329.428 C196.867,329.428 195.427,329.428 193.963,329.428 C192.499,329.428 191.059,329.308 189.643,329.068 C188.251,328.828 186.895,328.432 185.575,327.88 C184.255,327.328 183.043,326.488 181.939,325.36 C181.003,324.496 180.211,323.74 179.563,323.092 C178.939,322.42 178.399,321.82 177.943,321.292 C177.511,320.74 177.139,320.236 176.827,319.78 C176.539,319.324 176.263,318.88 175.999,318.448 L182.515,314.416 M236.068,303.976 C234.652,303.976 233.332,304.132 232.108,304.444 C230.908,304.732 229.864,305.212 228.976,305.884 C228.088,306.532 227.38,307.396 226.852,308.476 C226.348,309.556 226.096,310.864 226.096,312.4 C226.096,313.96 226.348,315.28 226.852,316.36 C227.38,317.416 228.088,318.28 228.976,318.952 C229.864,319.624 230.908,320.104 232.108,320.392 C233.332,320.68 234.652,320.824 236.068,320.824 L239.992,320.824 C241.672,320.824 243.304,320.572 244.888,320.068 C246.496,319.54 247.876,318.628 249.028,317.332 L251.332,318.772 C250.66,319.708 249.892,320.464 249.028,321.04 C248.164,321.592 247.24,322.012 246.256,322.3 C245.272,322.588 244.24,322.78 243.16,322.876 C242.104,322.972 241.048,323.02 239.992,323.02 L236.068,323.02 C234.316,323.02 232.684,322.84 231.172,322.48 C229.684,322.096 228.388,321.484 227.284,320.644 C226.204,319.78 225.352,318.676 224.728,317.332 C224.128,315.988 223.828,314.344 223.828,312.4 C223.828,310.456 224.128,308.812 224.728,307.468 C225.352,306.124 226.204,305.032 227.284,304.192 C228.388,303.328 229.684,302.716 231.172,302.356 C232.684,301.972 234.316,301.78 236.068,301.78 L239.992,301.78 C241.048,301.78 242.104,301.828 243.16,301.924 C244.24,302.02 245.272,302.212 246.256,302.5 C247.24,302.788 248.164,303.22 249.028,303.796 C249.892,304.348 250.66,305.092 251.332,306.028 L249.028,307.468 C247.876,306.172 246.496,305.272 244.888,304.768 C243.304,304.24 241.672,303.976 239.992,303.976 L236.068,303.976 M239.992,305.992 C241.72,305.992 243.304,306.316 244.744,306.964 C246.184,307.588 247.408,308.62 248.416,310.06 L254.14,306.676 C253.324,305.284 252.412,304.144 251.404,303.256 C250.396,302.344 249.292,301.636 248.092,301.132 C246.916,300.604 245.644,300.244 244.276,300.052 C242.932,299.86 241.504,299.764 239.992,299.764 L236.068,299.764 C233.98,299.764 232.06,300.004 230.308,300.484 C228.58,300.94 227.08,301.672 225.808,302.68 C224.56,303.688 223.576,304.996 222.856,306.604 C222.16,308.188 221.812,310.12 221.812,312.4 C221.812,314.68 222.16,316.624 222.856,318.232 C223.576,319.816 224.56,321.112 225.808,322.12 C227.08,323.128 228.58,323.872 230.308,324.352 C232.06,324.808 233.98,325.036 236.068,325.036 L239.992,325.036 C241.504,325.036 242.932,324.94 244.276,324.748 C245.644,324.556 246.916,324.208 248.092,323.704 C249.292,323.176 250.396,322.468 251.404,321.58 C252.412,320.692 253.324,319.54 254.14,318.124 L248.416,314.74 C247.408,316.18 246.184,317.224 244.744,317.872 C243.304,318.496 241.72,318.808 239.992,318.808 L236.068,318.808 C234.988,318.808 233.968,318.7 233.008,318.484 C232.048,318.268 231.208,317.92 230.488,317.44 C229.768,316.936 229.192,316.276 228.76,315.46 C228.328,314.644 228.112,313.624 228.112,312.4 C228.112,311.2 228.328,310.192 228.76,309.376 C229.192,308.56 229.768,307.9 230.488,307.396 C231.232,306.892 232.084,306.532 233.044,306.316 C234.004,306.1 235.012,305.992 236.068,305.992 L239.992,305.992 M227.212,325.504 C225.844,324.304 224.752,323.188 223.936,322.156 C223.12,321.1 222.484,320.068 222.028,319.06 C221.572,318.028 221.272,316.972 221.128,315.892 C220.984,314.812 220.912,313.648 220.912,312.4 C220.912,309.952 221.284,307.876 222.028,306.172 C222.772,304.444 223.816,303.04 225.16,301.96 C226.504,300.88 228.1,300.1 229.948,299.62 C231.82,299.116 233.86,298.864 236.068,298.864 L239.992,298.864 C241.36,298.864 242.668,298.924 243.916,299.044 C245.188,299.14 246.448,299.428 247.696,299.908 C248.944,300.388 250.216,301.108 251.512,302.068 C252.808,303.028 254.2,304.36 255.688,306.064 C255.928,306.328 256.192,306.64 256.48,307 C256.768,307.36 257.044,307.744 257.308,308.152 C257.572,308.56 257.836,308.98 258.1,309.412 C258.364,309.82 258.604,310.204 258.82,310.564 L251.8,314.704 L249.064,311.968 C248.224,311.416 247.348,311.02 246.436,310.78 C245.524,310.516 244.576,310.384 243.592,310.384 L239.668,310.384 C238.708,310.384 237.796,310.48 236.932,310.672 C236.068,310.864 235.3,311.176 234.628,311.608 C233.98,312.04 233.464,312.616 233.08,313.336 C232.696,314.056 232.504,314.944 232.504,316 C232.504,316.576 232.552,317.056 232.648,317.44 C233.152,317.608 233.692,317.728 234.268,317.8 C234.844,317.872 235.444,317.908 236.068,317.908 L239.992,317.908 C241.576,317.908 243.064,317.572 244.456,316.9 C245.872,316.228 247.12,315.112 248.2,313.552 L255.4,317.8 L258.82,321.436 C257.86,323.068 256.816,324.4 255.688,325.432 C254.584,326.464 253.396,327.268 252.124,327.844 C250.852,328.444 249.508,328.852 248.092,329.068 C246.676,329.308 245.176,329.428 243.592,329.428 L239.668,329.428 C238.444,329.428 237.232,329.344 236.032,329.176 C234.856,329.032 233.716,328.792 232.612,328.456 C231.532,328.144 230.524,327.736 229.588,327.232 C228.676,326.752 227.884,326.176 227.212,325.504 M291.674,311.32 L291.674,313.48 L273.35,313.48 L273.35,320.824 L295.418,320.824 L295.418,323.02 L271.118,323.02 L271.118,301.78 L295.382,301.78 L295.382,303.976 L273.35,303.976 L273.35,311.32 L291.674,311.32 M297.398,305.992 L297.398,299.764 L269.102,299.764 L269.102,325.036 L297.434,325.036 L297.434,318.808 L275.33,318.808 L275.33,315.46 L293.654,315.46 L293.654,309.34 L275.33,309.34 L275.33,305.992 L297.398,305.992 M268.202,325.936 L268.202,298.864 L298.298,298.864 L301.79,302.572 L301.79,310.384 L296.282,310.384 L298.046,312.148 L298.046,317.908 L301.826,321.616 L301.826,329.428 L271.91,329.428 L268.202,325.936 M315.581,305.2 L315.581,323.02 L313.457,323.02 L313.457,301.78 L315.293,301.78 L334.625,319.6 L334.625,301.78 L336.785,301.78 L336.785,323.02 L334.985,323.02 L315.581,305.2 M338.801,299.764 L332.645,299.764 L332.645,315.064 L315.977,299.764 L311.441,299.764 L311.441,325.036 L317.597,325.036 L317.597,309.7 L334.301,325.036 L338.801,325.036 L338.801,299.764 M310.541,325.936 L310.541,298.864 L316.301,298.864 L331.745,313.012 L331.745,298.864 L339.701,298.864 L343.193,302.572 L343.193,329.428 L337.577,329.428 L321.989,315.136 L321.989,329.428 L314.249,329.428 L310.541,325.936 M367.723,303.976 L355.663,303.976 L355.663,301.78 L381.979,301.78 L381.979,303.976 L369.883,303.976 L369.883,323.02 L367.723,323.02 L367.723,303.976 M371.863,305.992 L383.959,305.992 L383.959,299.764 L353.683,299.764 L353.683,305.992 L365.743,305.992 L365.743,325.036 L371.863,325.036 L371.863,305.992 M352.783,306.892 L352.783,298.864 L384.859,298.864 L388.351,302.572 L388.351,310.384 L376.255,310.384 L376.255,329.428 L368.551,329.428 L364.843,325.936 L364.843,310.384 L356.491,310.384 L352.783,306.892 Z" style="stroke:none;fill-rule:nonzero;fill:#000000;fill-opacity:1;"/>
        </g>
    </g>
</svg>
